<svg version="1.1" xmlns="http://www.w3.org/2000/svg" viewBox="0 0 2024 2048">
<path transform="translate(0,0)" fill="rgb(255,255,255)" d="M 993.685 0 L 1037.54 0 C 1050.22 3.44446 1076.74 2.44878 1090.86 3.31027 C 1130.91 5.75453 1169.38 11.2217 1208.69 19.3797 C 1216.67 21.0351 1237.91 24.7395 1244.98 27.4006 C 1258.3 30.6421 1271.58 34.0379 1284.83 37.5873 C 1300.75 43.4513 1317.75 47.2932 1333.52 52.6152 C 1356.06 60.3301 1378.9 68.755 1400.85 78.016 C 1639.28 178.614 1830.76 371.147 1935.78 607.067 C 1954.69 649.619 1968.09 694.002 1983.35 737.899 C 1986.71 747.567 1988.09 758.916 1990.99 768.725 C 2006.63 821.74 2011.03 876.223 2018.67 930.661 C 2019.66 937.659 2022.02 970.05 2024 974.433 L 2024 1105.83 C 2022.35 1111.71 2022.13 1121.06 2021.34 1127.49 C 2019.27 1144.68 2016.98 1161.85 2014.47 1178.99 C 2007.69 1225.09 1997.7 1270.66 1984.57 1315.37 C 1911.93 1571.94 1717.15 1807.37 1481.8 1930.63 C 1465.52 1939.16 1387.86 1980.04 1361.86 1983.87 C 1364.69 1983.45 1345.8 1993.9 1342.84 1992.9 C 1251.27 2022.22 1156.41 2045.23 1059.78 2046.42 C 1053.97 2046.49 1043.69 2046.41 1038.64 2048 L 989.116 2048 C 982.098 2046.16 951.309 2045.12 941.574 2044.55 C 921.009 2043.34 900.482 2041.55 880.015 2039.21 C 850.031 2032.7 817.026 2030.69 786.696 2021.45 C 739.416 2012.09 694.416 1997.25 649.684 1979.68 C 474.353 1910.78 321.632 1794.49 208.586 1643.79 C 137.512 1548.66 75.8106 1436.34 42.3027 1321.97 C 27.3351 1269.72 16.524 1216.37 9.97043 1162.42 C 5.80799 1129.36 2.2053 1098.22 1.45068 1064.87 C -0.214551 991.271 6.43153 920.091 17.4618 847.421 C 21.0821 823.57 26.7576 801.774 32.3418 778.322 C 72.8074 609.348 155.968 453.59 273.863 325.956 C 291.553 306.738 327.301 269.316 347.538 254.249 C 358.792 239.479 428.662 188.551 445.91 176.5 C 468.643 159.871 494.203 144.631 518.694 130.759 C 623.745 71.1764 738.643 30.9467 857.917 11.9861 C 885.418 7.659 913.452 4.9219 941.261 3.21592 C 948.969 2.74303 989.133 2.71344 993.685 0 z"/>
<path transform="translate(0,0)" fill="rgb(0,0,0)" d="M 993.685 0 L 1037.54 0 C 1050.22 3.44446 1076.74 2.44878 1090.86 3.31027 C 1130.91 5.75453 1169.38 11.2217 1208.69 19.3797 C 1216.67 21.0351 1237.91 24.7395 1244.98 27.4006 C 1239.67 41.4821 1233.89 54.6006 1228.46 68.5092 L 1167.2 224.127 L 1032.18 565.011 C 1074.72 557.606 1116.38 542.052 1158.81 532.93 C 1173.04 529.87 1187.54 524.868 1201.88 521.613 C 1195.39 552.811 1175.41 594.832 1164 625.553 L 1059.04 901.187 C 1076.69 900.988 1107.79 893.284 1126.54 889.804 L 1209.61 875.091 C 1235.18 870.325 1257.2 865.286 1283.34 861.001 C 1278.56 872.938 1271.68 885.095 1266.36 897.143 C 1247 940.925 1225.76 983.907 1205.33 1027.08 L 1108.28 1234.59 L 1064.12 1328.53 C 1057.14 1343.31 1047.29 1360.45 1042.36 1375.54 C 1084.29 1366.88 1125.13 1356.01 1167.07 1347.81 C 1179.63 1345.35 1195.46 1341.67 1207.9 1340.08 L 962.132 1791.09 L 877.717 1945.93 C 864.079 1970.93 848.117 1998.63 835.254 2023.82 C 849.532 1973.8 864.107 1923.87 878.978 1874.03 C 898.545 1806.29 918.77 1738.74 939.648 1671.39 C 953.776 1626.26 969.014 1581.79 982.729 1536.66 C 986.92 1522.87 991.862 1509.24 995.506 1495.33 C 975.735 1501.19 957.029 1504.29 936.889 1508.56 C 912.506 1513.74 888.083 1519.25 863.742 1524.67 C 869.765 1507.02 877.606 1491.39 884.29 1474.33 C 892.461 1453.46 900.476 1433.04 908.914 1412.27 C 939.126 1339.1 968.269 1265.49 996.332 1191.46 C 948.474 1201.15 895.893 1207.89 847.461 1215.11 C 833.343 1217.22 805.55 1222.89 792.483 1223.04 L 1016.1 699.877 C 962.496 716.379 894.864 733.258 839.889 746.23 C 843.45 721.294 850.77 695.459 856.674 671.059 L 882.36 565.23 C 886.687 548.022 889.658 530.907 893.762 513.703 L 930.328 361.479 L 971.987 186.378 C 976.131 169.413 982.597 131.788 989.028 116.519 C 966.361 115.343 933.897 118.56 911.37 121.191 C 793.294 135.012 679.225 172.534 576.001 231.508 C 552.288 245.089 529.177 259.696 506.734 275.287 C 494.601 283.843 481.081 295.166 468.7 302.937 C 459.834 271.344 446.227 209.529 445.91 176.5 C 468.643 159.871 494.203 144.631 518.694 130.759 C 623.745 71.1764 738.643 30.9467 857.917 11.9861 C 885.418 7.659 913.452 4.9219 941.261 3.21592 C 948.969 2.74303 989.133 2.71344 993.685 0 z"/>
<path transform="translate(0,0)" fill="rgb(0,0,0)" d="M 1284.83 37.5873 C 1300.75 43.4513 1317.75 47.2932 1333.52 52.6152 C 1356.06 60.3301 1378.9 68.755 1400.85 78.016 C 1639.28 178.614 1830.76 371.147 1935.78 607.067 C 1954.69 649.619 1968.09 694.002 1983.35 737.899 C 1986.71 747.567 1988.09 758.916 1990.99 768.725 C 2006.63 821.74 2011.03 876.223 2018.67 930.661 C 2019.66 937.659 2022.02 970.05 2024 974.433 L 2024 1105.83 C 2022.35 1111.71 2022.13 1121.06 2021.34 1127.49 C 2019.27 1144.68 2016.98 1161.85 2014.47 1178.99 C 2007.69 1225.09 1997.7 1270.66 1984.57 1315.37 C 1911.93 1571.94 1717.15 1807.37 1481.8 1930.63 C 1465.52 1939.16 1387.86 1980.04 1361.86 1983.87 C 1364.69 1983.45 1345.8 1993.9 1342.84 1992.9 C 1251.27 2022.22 1156.41 2045.23 1059.78 2046.42 C 1053.97 2046.49 1043.69 2046.41 1038.64 2048 L 989.116 2048 C 982.098 2046.16 951.309 2045.12 941.574 2044.55 C 921.009 2043.34 900.482 2041.55 880.015 2039.21 C 897.658 2004.81 921.07 1965.28 936.861 1930.89 C 1099.19 1945.41 1262.31 1913.85 1407.5 1839.82 C 1626.77 1728.08 1793.12 1534.35 1870.43 1300.71 C 1888.07 1246.37 1899.1 1185.56 1906 1128.99 C 1908.85 1105.6 1913.6 1076.24 1913.07 1052.77 C 1908.95 869.661 1868.15 694.844 1769.55 538.666 C 1671.48 382.67 1528.65 259.871 1359.71 186.309 C 1317.93 168.345 1284.19 159.018 1241.72 145.207 C 1253.13 113.274 1270.59 68.0025 1284.83 37.5873 z"/>
<path transform="translate(0,0)" fill="rgb(0,0,0)" d="M 786.696 2021.45 C 739.416 2012.09 694.416 1997.25 649.684 1979.68 C 474.353 1910.78 321.632 1794.49 208.586 1643.79 C 137.512 1548.66 75.8106 1436.34 42.3027 1321.97 C 27.3351 1269.72 16.524 1216.37 9.97043 1162.42 C 5.80799 1129.36 2.2053 1098.22 1.45068 1064.87 C -0.214551 991.271 6.43153 920.091 17.4618 847.421 C 21.0821 823.57 26.7576 801.774 32.3418 778.322 C 72.8074 609.348 155.968 453.59 273.863 325.956 C 291.553 306.738 327.301 269.316 347.538 254.249 C 342.288 271.057 335.73 290.462 332.085 307.426 C 322.229 353.302 321.543 395.494 326.427 441.851 C 303.902 471.178 286.21 493.412 265.409 524.994 C 196.357 630.34 149.967 748.894 129.184 873.127 C 123.789 905.961 121.969 939.582 118.231 972.527 C 111.409 1032.66 115.087 1086.78 122.904 1146.59 C 131.559 1217.73 149.127 1287.5 175.197 1354.25 C 270.112 1596.27 480.237 1801.96 726.213 1885.83 C 745.226 1892.32 765.267 1897.57 784.47 1903.66 C 795.861 1907.1 810.432 1908.89 821.647 1912.68 C 813.202 1934.22 806.532 1958.7 799.268 1980.82 C 795.88 1991.13 790.835 2012.11 786.696 2021.45 z"/>
<path transform="translate(0,0)" fill="rgb(174,29,27)" d="M 409.52 210.756 C 412.329 215.286 417.546 262.087 419.716 271.27 C 426.077 298.187 435.468 324.45 445.401 350.342 C 452.97 370.071 467.037 390.859 478.413 408.593 C 507.822 452.561 559.108 496.499 608.231 517.229 C 602.745 506.228 585.94 478.763 578.222 469.267 C 655.019 405.601 725.397 373.87 823.812 356.303 C 836.611 354.226 849.533 352.262 862.439 351.002 C 872.171 350.052 881.83 350.884 891.383 348.443 C 880.704 407.117 861.386 476.743 847.618 535.241 L 805.022 716.5 C 798.186 745.488 792.6 771.632 784.949 800.647 C 795.725 798.428 806.855 794.316 817.587 791.811 C 843.533 785.755 869.239 779.201 894.923 772.131 C 912.529 767.284 929.755 765.048 947.07 758.916 C 897.021 879.738 843.777 1001.07 792.359 1121.48 L 750.575 1220.87 C 743.331 1237.9 733.382 1256.05 728.883 1273.72 L 859.503 1253.1 C 884.441 1249.19 909.615 1244.23 934.736 1242.2 C 930.577 1255.69 925.714 1265.65 920.422 1278.64 L 896.803 1336.64 C 887.599 1358.65 880.28 1379.06 871.656 1400.89 L 837.613 1484.77 C 826.837 1511.63 809.147 1551.18 800.86 1577.86 C 811.483 1576.64 832.255 1571.71 843.221 1569.15 C 875.431 1561.64 904.908 1554.71 937.569 1548.9 C 933.904 1558.25 930.891 1571.8 927.616 1581.97 L 897.308 1675.24 C 893.749 1685.96 890.654 1696.66 887.481 1707.49 C 880.753 1730.43 871.797 1752.41 865.796 1775.62 C 845.362 1756.43 807.281 1697.33 793.104 1670.75 C 787.351 1659.96 776.096 1631.34 770.986 1623.9 L 770.029 1624.02 C 768.084 1627.4 766.881 1636.2 765.883 1640.34 C 758.221 1672.13 762.164 1707.43 771.233 1738.55 C 733.255 1702.8 690.531 1643.74 669.477 1596.25 C 662.808 1581.2 652.371 1546.22 648.034 1530.23 C 620.655 1570.64 625.32 1604.24 626.148 1648.51 C 618.62 1633.7 609.047 1618.88 601.959 1604.37 C 584.869 1569.39 574.649 1540.51 569.685 1501.7 C 567.905 1487.79 570.451 1450.77 568.08 1444.52 C 569.191 1444.22 537.075 1475.91 527.739 1478.23 C 524.476 1479.04 496.691 1494.83 492.873 1497.14 C 502.581 1478.85 512.611 1459.48 520.716 1440.46 C 523.69 1433.48 530.898 1407.55 527.988 1401.47 C 523.726 1401.9 512.862 1411.18 507.397 1413.88 C 486.351 1424.25 474.466 1429.54 451.419 1433.77 C 495.405 1388 505.202 1325.62 507.868 1264.45 C 508.687 1245.63 509.553 1226.01 506.374 1207.39 C 445.978 1220.01 425.973 1182.24 405.156 1133.68 C 394.279 1108.31 369.404 1083.07 360.192 1056.86 C 353.283 1037.2 354.975 1009.61 354.002 989.055 C 353.049 970.101 352.111 951.337 350.73 932.537 C 347.463 882.089 338.686 832.15 324.555 783.612 C 334.832 789.905 343.422 799.269 353.287 806.635 C 383.526 829.215 413.693 851.274 444.427 873.211 C 443.578 860.959 440.347 845.99 439.059 832.965 C 433.948 781.261 432.925 728.906 446.253 678.267 C 448.876 668.302 454.941 653.329 458.665 643.448 C 423.002 599.197 391.283 551.919 375.521 496.594 C 348.739 400.557 360.958 297.831 409.52 210.756 z"/>
<path transform="translate(0,0)" fill="rgb(255,255,255)" d="M 530.716 871.178 C 546.985 873.715 578.785 875.854 591.733 880.689 C 617.07 890.15 648.498 911.728 670.799 926.794 L 730.674 966.615 C 744.345 975.521 758.606 981.645 772.42 991.255 L 762.757 993.342 C 719.134 1000.14 676.792 1011.51 634.322 991.621 C 611.701 981.028 592.943 956.824 584.254 933.477 C 580.923 924.53 579.327 905.659 572.792 898.512 C 562.264 887 544.309 882.149 531.656 873.825 C 531.342 872.943 531.029 872.061 530.716 871.178 z"/>
<path transform="translate(0,0)" fill="rgb(27,42,174)" d="M 1164.39 337.549 C 1181.42 338.775 1233.39 349.024 1248.68 355.168 C 1250.42 370.162 1250.78 384.83 1251.69 399.896 C 1252.7 416.459 1255.12 434.086 1254.99 450.57 C 1277.72 459.732 1395.33 508.694 1408.13 521.977 C 1425.61 510.074 1438.8 497.291 1454.93 483.769 C 1464.76 475.528 1476.33 467.149 1486.66 459.417 C 1490.87 463.445 1496.16 467.593 1500.74 471.274 C 1542.19 504.539 1577.15 540.731 1613.12 579.877 C 1605.82 590.147 1554.73 668.424 1553.79 675.408 C 1552.71 683.384 1552.69 769.289 1553.87 783.388 C 1554.27 788.255 1575.28 839.859 1579.36 849.905 C 1586.94 868.568 1598.28 922.124 1604.39 934.422 C 1607.43 940.549 1678.59 948.726 1692.9 951.757 C 1697.13 984.266 1699.85 1021.1 1700.21 1054.06 C 1700.51 1082.07 1695.27 1113.68 1694.79 1141.48 C 1686.91 1144.04 1671.16 1146.49 1662.27 1148.11 L 1603.93 1158.66 C 1596.35 1189.14 1589.91 1221.01 1580.25 1251.05 C 1572.7 1274.52 1561.56 1298.87 1552.75 1322.15 C 1562.94 1334.15 1570.63 1341.45 1582.28 1352.29 C 1587.85 1357.47 1593.69 1364.88 1599.63 1370.61 C 1605.07 1375.86 1612.78 1383.83 1617.41 1389.7 C 1618.21 1390.4 1617.07 1392.99 1616.64 1393.86 C 1593.66 1440.48 1562.2 1483.41 1528.04 1522.42 C 1523 1528.18 1513.78 1540.42 1507.55 1543.25 C 1503.51 1542.13 1491.08 1535.12 1486.15 1532.62 L 1423.81 1500.54 C 1404.29 1515.36 1386.18 1532.79 1367.03 1548.35 C 1341.56 1569.04 1312.59 1584.08 1286.24 1602.78 C 1291.04 1632.23 1296.09 1663.45 1299.61 1693 L 1299.47 1695.27 C 1289.63 1702.34 1281.15 1703.23 1270.87 1707.99 C 1221.15 1730.99 1169.3 1741.54 1115.37 1751.46 C 1111.9 1738.02 1104.99 1727.13 1099.68 1714.66 C 1092.91 1698.78 1085.11 1682.67 1078.75 1666.74 C 1086.85 1649.34 1097.14 1631.98 1106.35 1615.03 C 1112.65 1603.42 1122.27 1581.37 1130.55 1571.49 C 1137.77 1568.15 1149.43 1565.76 1157.41 1563.36 C 1276.53 1527.44 1381.78 1441.99 1447.69 1337.11 C 1526.18 1210.84 1548.3 1057.5 1508.7 914.186 C 1498.51 877.67 1482.37 843.512 1468.78 808.697 C 1466.15 801.937 1469.43 768.294 1468.89 758.367 C 1466.5 714.12 1469.82 668.775 1467.08 624.606 C 1466.86 621.036 1437.97 614.316 1432.56 612.442 C 1421.75 608.693 1409.9 606.848 1399.04 602.503 C 1357 585.68 1314.18 570.016 1274.3 548.401 C 1263.69 542.682 1252.56 538.594 1241.76 532.514 C 1249.39 511.51 1258.32 486.975 1265.15 465.959 C 1234.59 472.537 1200.16 482.679 1169.46 490.154 C 1152.29 494.334 1113.46 502.881 1097.79 508.816 C 1114.84 463.058 1132.73 417.615 1151.44 372.511 C 1155.48 362.636 1160.25 345.712 1164.39 337.549 z"/>
<path transform="translate(0,0)" fill="rgb(27,42,174)" d="M 1227.54 566.611 C 1244.54 579.23 1258.9 584.287 1277.71 593.06 C 1327.14 616.608 1378.21 636.559 1430.51 652.759 C 1427.15 671.603 1429.97 694.246 1429.98 713.901 L 1429.96 783.134 C 1429.95 787.953 1429.47 815.675 1430.79 818.314 C 1440.95 838.709 1451.77 862.896 1460.23 884.243 C 1468.84 905.98 1473.23 925.283 1478.12 947.438 C 1501.33 1048.04 1492.2 1153.41 1452.03 1248.52 C 1399.42 1373.47 1301.84 1466.11 1176.75 1517.08 C 1168.23 1520.12 1159.74 1523.25 1151.29 1526.47 C 1161.91 1511.27 1173.91 1483.72 1183.82 1471.32 C 1199.38 1458.68 1223.16 1449.4 1239.55 1438.26 C 1293.21 1401.79 1341.9 1355.92 1377.44 1301.08 C 1429.83 1218.77 1454.46 1121.84 1447.75 1024.51 C 1445.09 990.133 1437.77 957.872 1429.31 924.084 C 1421.52 892.957 1402.84 859.801 1390.5 830.811 C 1386.88 822.309 1391.31 781.506 1389.61 770.006 C 1388.41 761.878 1389.34 746.958 1388.22 737.924 C 1387.92 719.55 1388.08 700.848 1388.1 682.49 C 1347.26 670.11 1308.33 653.472 1270.17 634.6 C 1250.08 624.667 1233.06 618.035 1212.97 606.405 C 1217.62 598.452 1226.26 575.947 1227.54 566.611 z"/>
</svg>